<?xml version="1.0"?>
<svg xmlns:rdf="http://www.w3.org/1999/02/22-rdf-syntax-ns#" xmlns="http://www.w3.org/2000/svg" xmlns:cc="http://creativecommons.org/ns#" xmlns:dc="http://purl.org/dc/elements/1.1/" xmlns:svg="http://www.w3.org/2000/svg" id="svg2717" viewBox="0 0 460.97 386.08" version="1.1">
  <path id="path2735" d="m460.97 119.65v-119.46h-256.29v119.46h256.29z"/>
  <path id="path2735-0" d="m460.97 111.91v-111.73h-246.51v111.73h246.51z" fill="#fff"/>
  <path id="path2735-7" d="m460.97 104.96v-104.78h-241.86v104.78h241.86z"/>
  <path id="path2731" d="m105.65 74.389c20.54 0 37.194-16.651 37.194-37.193s-16.654-37.196-37.194-37.196c-20.543 0-37.196 16.654-37.196 37.196s16.653 37.193 37.196 37.193z"/>
  <path id="path2733" d="m8.0637 206.26h32.679l19.792-71.858h8.031l-19.332 71.858h115.61l-20.713-71.858h8.438l11.046 35.224c5.229 14.878 18.411 18.317 28.536 5.636l40.068-48.383c12.5-16.25-10.125-33.375-23.25-19.125l-23.625 28.25c0 0.469-4.5-15.5-4.5-15.5-5.5-19-23.5-37.675-50.5-37.675h-51c-24 0-42.895 21.008-46.802 34.195l-24.474 89.236z"/>
  <path id="path2743" d="m200.52 231.79v-17.023h-200.52v17.023h200.52z"/>
  <path id="path2743-1" d="m178.53 386.08v-151.03h-178.53v151.03h178.53z"/>
  <path id="path2735-0-9" d="m320.81 12.958-3.6036-3.4317-92.624 97.263 3.6036 3.4317 92.624-97.263z" fill="#fff"/>
  <path id="path2735-0-4" d="m168.49 375.55v-130.85h-168.49v130.85h168.49z" fill="#fff"/>
  <path id="path2743-1-8" d="m165.91 373.91v-127.87h-165.91v127.87h165.91z"/>
  <g id="text3786" fill="#fff">
    <path id="path3943" d="m315.83 66.078-11.094-28.633h4.1016l7.4414 20.801c0.59894 1.6667 1.1002 3.2292 1.5039 4.6875 0.4427-1.5625 0.95702-3.125 1.543-4.6875l7.7344-20.801h3.8672l-11.211 28.633z"/>
    <path id="path3945" d="m352.41 49.242h-18.906v-3.2812h18.906zm0 8.6914h-18.906v-3.2812h18.906z"/>
  </g>
  <g id="text3786-2" fill="#fff">
    <path id="path3951" d="m380.5 40.739v-6.8555h-12.422v-3.2227l13.066-18.555h2.8711v18.555h3.8672v3.2227h-3.8672v6.8555zm0-10.078v-12.91l-8.9648 12.91z"/>
  </g>
  <g id="text3786-5" fill="#fff">
    <path id="path3954" d="m370.28 82.094 3.5156-0.46875c0.40364 1.9922 1.0905 3.4277 2.0606 4.3066 0.97004 0.87891 2.1517 1.3184 3.5449 1.3184 1.6536 0.000003 3.0501-0.57291 4.1894-1.7188 1.1393-1.1458 1.709-2.5651 1.709-4.2578-0.00002-1.6146-0.52736-2.946-1.582-3.9941-1.0547-1.0482-2.3958-1.5723-4.0234-1.5723-0.66407 0.000014-1.4909 0.13022-2.4805 0.39062l0.39063-3.0859c0.23436 0.02606 0.42316 0.03908 0.5664 0.03906 1.4974 0.000016 2.845-0.39061 4.043-1.1719 1.1979-0.78123 1.7969-1.9857 1.7969-3.6133-0.00002-1.289-0.43622-2.3567-1.3086-3.2031-0.87241-0.84633-1.9987-1.2695-3.3789-1.2695-1.3672 0.000026-2.5065 0.42971-3.418 1.2891-0.91147 0.8594-1.4974 2.1485-1.7578 3.8672l-3.5156-0.625c0.42968-2.3567 1.4062-4.1829 2.9297-5.4785 1.5234-1.2955 3.418-1.9433 5.6836-1.9434 1.5625 0.000029 3.0013 0.33532 4.3164 1.0059 1.3151 0.6706 2.3209 1.5853 3.0176 2.7441 0.6966 1.1589 1.0449 2.3893 1.0449 3.6914-0.00002 1.237-0.33205 2.3633-0.9961 3.3789-0.66408 1.0156-1.6472 1.8229-2.9492 2.4219 1.6927 0.39064 3.0078 1.2012 3.9453 2.4316 0.93748 1.2305 1.4062 2.7702 1.4062 4.6191-0.00002 2.5-0.91148 4.6191-2.7344 6.3574s-4.1276 2.6074-6.9141 2.6074c-2.513-0.000001-4.5996-0.7487-6.2598-2.2461s-2.6074-3.4375-2.8418-5.8203z"/>
  </g>
  <path id="path2735-0-1" d="m399.75 53.976v-3.8565h-43.647v3.8565h43.647z" fill="#fff"/>
  <g id="text3786-5-7" fill="#fff">
    <path id="path3940" d="m442.72 35.398 1.907-0.25427c0.21895 1.0807 0.59152 1.8594 1.1177 2.3361 0.52619 0.47676 1.1672 0.71514 1.9229 0.71514 0.89701 0.000001 1.6545-0.31077 2.2725-0.93232 0.61801-0.62155 0.92702-1.3914 0.92703-2.3096-0.00001-0.87581-0.28606-1.598-0.85816-2.1666-0.57212-0.56857-1.2996-0.85286-2.1825-0.85286-0.36022 0.000008-0.80872 0.07064-1.3455 0.21189l0.21189-1.6739c0.12713 0.01413 0.22955 0.0212 0.30724 0.02119 0.81225 0.000009 1.5433-0.21188 2.1931-0.63568 0.6498-0.42377 0.9747-1.0771 0.97471-1.96-0.00001-0.69923-0.23662-1.2784-0.70984-1.7375-0.47323-0.45908-1.0842-0.68863-1.8329-0.68865-0.74163 0.000014-1.3596 0.2331-1.8541 0.69924-0.49442 0.46618-0.81225 1.1654-0.95351 2.0977l-1.907-0.33903c0.23308-1.2784 0.76281-2.269 1.5892-2.9718 0.82638-0.70276 1.854-1.0541 3.083-1.0542 0.84756 0.000016 1.628 0.18189 2.3414 0.54562 0.71336 0.36376 1.259 0.85994 1.6369 1.4885 0.37786 0.62862 0.5668 1.2961 0.56681 2.0024-0.00001 0.671-0.18012 1.282-0.54033 1.8329-0.36022 0.55093-0.89348 0.98884-1.5998 1.3137 0.91819 0.2119 1.6316 0.65158 2.1401 1.319 0.50853 0.66747 0.7628 1.5027 0.76281 2.5056-0.00001 1.3561-0.49443 2.5056-1.4832 3.4485-0.98883 0.94292-2.239 1.4144-3.7505 1.4144-1.3632 0-2.495-0.40613-3.3956-1.2184-0.90054-0.81225-1.4144-1.8646-1.5415-3.1572z"/>
  </g>
  <path id="path3887" stroke="#fff" stroke-width="2.2663" fill="none" d="m401.9 47.197s1.326-3.7128 6.6301-4.5085c5.3041-0.79561 9.0169 1.8564 13.26 1.8564h4.2432"/>
  <g id="text3786-1" transform="rotate(-90)" fill="#fff">
    <path id="path3957" d="m-43.75 411.08h-19.476v-3.3801h19.476zm0 8.9533h-19.476v-3.3801h19.476z"/>
  </g>
  <g id="text3786-7" fill="#fff">
    <path id="path3948" d="m429.82 63.146v-20.742h3.1641v3.1445c0.80728-1.4713 1.5527-2.4414 2.2363-2.9102 0.68358-0.46873 1.4355-0.7031 2.2559-0.70312 1.1849 0.000021 2.3893 0.37762 3.6133 1.1328l-1.2109 3.2617c-0.85939-0.5078-1.7188-0.7617-2.5781-0.76172-0.76824 0.000018-1.4584 0.23114-2.0703 0.69336-0.61198 0.46226-1.0482 1.1035-1.3086 1.9238-0.39063 1.25-0.58594 2.6172-0.58594 4.1016v10.859z"/>
  </g>
  <metadata>
    <rdf:RDF>
      <cc:Work>
        <dc:format>image/svg+xml</dc:format>
        <dc:type rdf:resource="http://purl.org/dc/dcmitype/StillImage"/>
        <cc:license rdf:resource="http://creativecommons.org/licenses/publicdomain/"/>
        <dc:publisher>
          <cc:Agent rdf:about="http://openclipart.org/">
            <dc:title>Openclipart</dc:title>
          </cc:Agent>
        </dc:publisher>
        <dc:title>Teacher silhouette black and white with desk and blackboard</dc:title>
        <dc:date>2010-05-18T22:09:42</dc:date>
        <dc:description>Teacher silhouette black and white with desk and blackboard - Silhouette en noir et blanc d'une enseignante avec pupitre et tableau noir - Lehrerin Silhouette schwarz und wei&#xDF; mit Schreibtisch und Tafel - Insegnante sagoma in bianco e nero con scrivania e lavagna</dc:description>
        <dc:source>http://openclipart.org/detail/60775/teacher-silhouette-black-and-white-with-desk-and-blackboard-by-palomaironique</dc:source>
        <dc:creator>
          <cc:Agent>
            <dc:title>palomaironique</dc:title>
          </cc:Agent>
        </dc:creator>
        <dc:subject>
          <rdf:Bag>
            <rdf:li>Dozent</rdf:li>
            <rdf:li>Formel</rdf:li>
            <rdf:li>Frau</rdf:li>
            <rdf:li>Grafik</rdf:li>
            <rdf:li>Herrin</rdf:li>
            <rdf:li>Hochschule</rdf:li>
            <rdf:li>Ikone</rdf:li>
            <rdf:li>Lehr</rdf:li>
            <rdf:li>Lehrer</rdf:li>
            <rdf:li>Lehrerin</rdf:li>
            <rdf:li>Master</rdf:li>
            <rdf:li>Person</rdf:li>
            <rdf:li>Schattenbild</rdf:li>
            <rdf:li>Schreibtisch</rdf:li>
            <rdf:li>Schule</rdf:li>
            <rdf:li>Stick</rdf:li>
            <rdf:li>Stock</rdf:li>
            <rdf:li>Symbol</rdf:li>
            <rdf:li>Tafel</rdf:li>
            <rdf:li>Tisch</rdf:li>
            <rdf:li>Turnhalle</rdf:li>
            <rdf:li>Universit&#xE4;t</rdf:li>
            <rdf:li>Vektor</rdf:li>
            <rdf:li>Wei&#xDF;</rdf:li>
            <rdf:li>Zeichen</rdf:li>
            <rdf:li>Zeiger</rdf:li>
            <rdf:li>baguette</rdf:li>
            <rdf:li>bastone</rdf:li>
            <rdf:li>bianco</rdf:li>
            <rdf:li>black</rdf:li>
            <rdf:li>blackboard</rdf:li>
            <rdf:li>blanc</rdf:li>
            <rdf:li>bureau</rdf:li>
            <rdf:li>bw</rdf:li>
            <rdf:li>clip art</rdf:li>
            <rdf:li>clipart</rdf:li>
            <rdf:li>college</rdf:li>
            <rdf:li>coll&#xE8;ge</rdf:li>
            <rdf:li>desk</rdf:li>
            <rdf:li>docente</rdf:li>
            <rdf:li>domain</rdf:li>
            <rdf:li>donna</rdf:li>
            <rdf:li>enseignant</rdf:li>
            <rdf:li>enseignante</rdf:li>
            <rdf:li>enseignement</rdf:li>
            <rdf:li>femme</rdf:li>
            <rdf:li>formula</rdf:li>
            <rdf:li>formulae</rdf:li>
            <rdf:li>formule</rdf:li>
            <rdf:li>grafica</rdf:li>
            <rdf:li>graphic</rdf:li>
            <rdf:li>graphique</rdf:li>
            <rdf:li>gymnase</rdf:li>
            <rdf:li>icon</rdf:li>
            <rdf:li>icona</rdf:li>
            <rdf:li>ic&#xF4;ne</rdf:li>
            <rdf:li>image</rdf:li>
            <rdf:li>insegnamento</rdf:li>
            <rdf:li>insegnante</rdf:li>
            <rdf:li>lavagna</rdf:li>
            <rdf:li>ma&#xEE;tre</rdf:li>
            <rdf:li>ma&#xEE;tresse</rdf:li>
            <rdf:li>media</rdf:li>
            <rdf:li>nero</rdf:li>
            <rdf:li>noir</rdf:li>
            <rdf:li>people</rdf:li>
            <rdf:li>persona</rdf:li>
            <rdf:li>personne</rdf:li>
            <rdf:li>pointer</rdf:li>
            <rdf:li>professeur</rdf:li>
            <rdf:li>public</rdf:li>
            <rdf:li>puntatore</rdf:li>
            <rdf:li>pupitre</rdf:li>
            <rdf:li>sagoma</rdf:li>
            <rdf:li>school</rdf:li>
            <rdf:li>schwarz</rdf:li>
            <rdf:li>scrivania</rdf:li>
            <rdf:li>scuola</rdf:li>
            <rdf:li>segno</rdf:li>
            <rdf:li>sign</rdf:li>
            <rdf:li>signe</rdf:li>
            <rdf:li>silhouette</rdf:li>
            <rdf:li>simbolo</rdf:li>
            <rdf:li>stick</rdf:li>
            <rdf:li>svg</rdf:li>
            <rdf:li>symbol</rdf:li>
            <rdf:li>symbole</rdf:li>
            <rdf:li>tableau</rdf:li>
            <rdf:li>tavolo</rdf:li>
            <rdf:li>teach</rdf:li>
            <rdf:li>teacher</rdf:li>
            <rdf:li>university</rdf:li>
            <rdf:li>universit&#xE0;</rdf:li>
            <rdf:li>universit&#xE9;</rdf:li>
            <rdf:li>vecteur</rdf:li>
            <rdf:li>vector</rdf:li>
            <rdf:li>vettore</rdf:li>
            <rdf:li>weiss</rdf:li>
            <rdf:li>white</rdf:li>
            <rdf:li>woman</rdf:li>
            <rdf:li>&#xE9;cole</rdf:li>
          </rdf:Bag>
        </dc:subject>
      </cc:Work>
      <cc:License rdf:about="http://creativecommons.org/licenses/publicdomain/">
        <cc:permits rdf:resource="http://creativecommons.org/ns#Reproduction"/>
        <cc:permits rdf:resource="http://creativecommons.org/ns#Distribution"/>
        <cc:permits rdf:resource="http://creativecommons.org/ns#DerivativeWorks"/>
      </cc:License>
    </rdf:RDF>
  </metadata>
</svg>
